<?xml version='1.0' encoding='UTF-8'?>
<svg x="0px" y="0px" viewBox="0 0 32 32" version="1.1" xmlns="http://www.w3.org/2000/svg" xmlns:xlink="http://www.w3.org/1999/xlink" xml:space="preserve" id="Layer_1">
  <path d="M0,6h32v22H0V6z" fill="#727272" class="Black" />
  <path d="M2,8h28v18H2V8z" fill="#FFFFFF" class="White" />
  <path d="M13,19.2c2.5,0.7,3,1.6,3,4.8h-3.7H4c0-3.2,0.5-4.1,3-4.8c1.3-0.4,1.5-1.3,1.5-1.7C7.7,16.6,7,15,7,13.2  c0-0.1,0-0.3,0-0.5C7,11.3,8.4,10,9.9,10c0,0,0,0,0.1,0c0,0,0,0,0.1,0c1.5,0,2.9,1.3,2.9,2.7c0,0.3,0,0.4,0,0.5  c0,1.8-0.7,3.4-1.5,4.3C11.5,17.9,11.7,18.8,13,19.2z" fill="#1177D7" class="Blue" />
  <g opacity="0.6" id="Layer_2" class="st0">
    <rect x="18" y="22" width="10" height="2" rx="0" ry="0" fill="#727272" opacity="0.6" class="Black" />
    <rect x="18" y="18" width="10" height="2" rx="0" ry="0" fill="#727272" opacity="0.6" class="Black" />
    <rect x="18" y="14" width="10" height="2" rx="0" ry="0" fill="#727272" opacity="0.6" class="Black" />
    <rect x="18" y="10" width="10" height="2" rx="0" ry="0" fill="#727272" opacity="0.6" class="Black" />
  </g>
</svg>