<?xml version='1.0' encoding='UTF-8'?>
<svg x="0px" y="0px" viewBox="0 0 32 32" version="1.1" xmlns="http://www.w3.org/2000/svg" xmlns:xlink="http://www.w3.org/1999/xlink" xml:space="preserve" id="Layer_1">
  <rect x="4" y="4" width="24" height="28" rx="0" ry="0" fill="#FFB115" class="Yellow" />
  <path d="M24,6V2h-4l-0.6-0.6C18.5,0.5,17.3,0,16,0s-2.5,0.5-3.4,1.4L12,2H8v4H6v24h20V10V6H24z" fill="#727272" class="Black" />
  <polyline points="24,28 8,28 8,8 20,8 24,8 24,12 " fill="#FFFFFF" class="White" />
  <polygon points="18,18 18,20 14,20 14,22 10,22 10,26 22,26 22,18 " fill="#D11C1C" class="Red" />
  <g opacity="0.6" id="Layer_2" class="st0">
    <path d="M10,10v2h12v-2H10z M10,16h12v-2H10V16z" fill="#727272" opacity="0.6" class="Black" />
  </g>
</svg>